<mxfile host="app.diagrams.net" agent="Mozilla/5.0 (X11; Linux x86_64) AppleWebKit/537.36 (KHTML, like Gecko) Chrome/137.0.0.0 Safari/537.36" version="26.1.0">
  <diagram id="C5RBs43oDa-KdzZeNtuy" name="Page-1">
    <mxGraphModel dx="784" dy="408" grid="1" gridSize="10" guides="1" tooltips="1" connect="1" arrows="1" fold="1" page="1" pageScale="1" pageWidth="827" pageHeight="1169" math="0" shadow="0">
      <root>
        <mxCell id="WIyWlLk6GJQsqaUBKTNV-0" />
        <mxCell id="WIyWlLk6GJQsqaUBKTNV-1" parent="WIyWlLk6GJQsqaUBKTNV-0" />
        <mxCell id="At7PRhOoIOO9pEV3UID3-3" style="edgeStyle=orthogonalEdgeStyle;rounded=0;orthogonalLoop=1;jettySize=auto;html=1;entryX=0.5;entryY=0;entryDx=0;entryDy=0;" edge="1" parent="WIyWlLk6GJQsqaUBKTNV-1" source="At7PRhOoIOO9pEV3UID3-0" target="At7PRhOoIOO9pEV3UID3-1">
          <mxGeometry relative="1" as="geometry" />
        </mxCell>
        <mxCell id="At7PRhOoIOO9pEV3UID3-0" value="Raw folder has an unprocessed video" style="rounded=1;whiteSpace=wrap;html=1;fontSize=12;glass=0;strokeWidth=1;shadow=0;" vertex="1" parent="WIyWlLk6GJQsqaUBKTNV-1">
          <mxGeometry x="550" y="80" width="120" height="40" as="geometry" />
        </mxCell>
        <mxCell id="At7PRhOoIOO9pEV3UID3-4" style="edgeStyle=orthogonalEdgeStyle;rounded=0;orthogonalLoop=1;jettySize=auto;html=1;exitX=0.5;exitY=1;exitDx=0;exitDy=0;entryX=0.5;entryY=0;entryDx=0;entryDy=0;" edge="1" parent="WIyWlLk6GJQsqaUBKTNV-1" source="At7PRhOoIOO9pEV3UID3-1" target="At7PRhOoIOO9pEV3UID3-5">
          <mxGeometry relative="1" as="geometry">
            <mxPoint x="610" y="330" as="targetPoint" />
            <Array as="points" />
          </mxGeometry>
        </mxCell>
        <mxCell id="At7PRhOoIOO9pEV3UID3-1" value="Agent Rico chunks the video to improve processing" style="rounded=1;whiteSpace=wrap;html=1;fontSize=12;glass=0;strokeWidth=1;shadow=0;" vertex="1" parent="WIyWlLk6GJQsqaUBKTNV-1">
          <mxGeometry x="550" y="190" width="120" height="40" as="geometry" />
        </mxCell>
        <mxCell id="At7PRhOoIOO9pEV3UID3-8" style="edgeStyle=orthogonalEdgeStyle;rounded=0;orthogonalLoop=1;jettySize=auto;html=1;exitX=1;exitY=0.5;exitDx=0;exitDy=0;entryX=0;entryY=0.5;entryDx=0;entryDy=0;" edge="1" parent="WIyWlLk6GJQsqaUBKTNV-1" source="At7PRhOoIOO9pEV3UID3-5" target="At7PRhOoIOO9pEV3UID3-7">
          <mxGeometry relative="1" as="geometry" />
        </mxCell>
        <mxCell id="At7PRhOoIOO9pEV3UID3-5" value="Coordenator receives chunks and organize actions" style="rounded=1;whiteSpace=wrap;html=1;fontSize=12;glass=0;strokeWidth=1;shadow=0;" vertex="1" parent="WIyWlLk6GJQsqaUBKTNV-1">
          <mxGeometry x="150" y="330" width="120" height="60" as="geometry" />
        </mxCell>
        <mxCell id="At7PRhOoIOO9pEV3UID3-9" style="edgeStyle=orthogonalEdgeStyle;rounded=0;orthogonalLoop=1;jettySize=auto;html=1;exitX=1;exitY=0.5;exitDx=0;exitDy=0;entryX=0;entryY=0.5;entryDx=0;entryDy=0;" edge="1" parent="WIyWlLk6GJQsqaUBKTNV-1" source="At7PRhOoIOO9pEV3UID3-7" target="At7PRhOoIOO9pEV3UID3-10">
          <mxGeometry relative="1" as="geometry">
            <mxPoint x="520" y="360.28571428571433" as="targetPoint" />
          </mxGeometry>
        </mxCell>
        <mxCell id="At7PRhOoIOO9pEV3UID3-12" style="edgeStyle=orthogonalEdgeStyle;rounded=0;orthogonalLoop=1;jettySize=auto;html=1;exitX=0.5;exitY=1;exitDx=0;exitDy=0;entryX=0;entryY=0.5;entryDx=0;entryDy=0;" edge="1" parent="WIyWlLk6GJQsqaUBKTNV-1" source="At7PRhOoIOO9pEV3UID3-7" target="At7PRhOoIOO9pEV3UID3-11">
          <mxGeometry relative="1" as="geometry" />
        </mxCell>
        <mxCell id="At7PRhOoIOO9pEV3UID3-17" style="edgeStyle=orthogonalEdgeStyle;rounded=0;orthogonalLoop=1;jettySize=auto;html=1;exitX=0.5;exitY=1;exitDx=0;exitDy=0;entryX=0;entryY=0.5;entryDx=0;entryDy=0;" edge="1" parent="WIyWlLk6GJQsqaUBKTNV-1" source="At7PRhOoIOO9pEV3UID3-7" target="At7PRhOoIOO9pEV3UID3-15">
          <mxGeometry relative="1" as="geometry" />
        </mxCell>
        <mxCell id="At7PRhOoIOO9pEV3UID3-7" value="For each chunk" style="rhombus;whiteSpace=wrap;html=1;" vertex="1" parent="WIyWlLk6GJQsqaUBKTNV-1">
          <mxGeometry x="350" y="320" width="80" height="80" as="geometry" />
        </mxCell>
        <mxCell id="At7PRhOoIOO9pEV3UID3-14" style="edgeStyle=orthogonalEdgeStyle;rounded=0;orthogonalLoop=1;jettySize=auto;html=1;entryX=0.5;entryY=0;entryDx=0;entryDy=0;" edge="1" parent="WIyWlLk6GJQsqaUBKTNV-1" source="At7PRhOoIOO9pEV3UID3-10" target="At7PRhOoIOO9pEV3UID3-11">
          <mxGeometry relative="1" as="geometry" />
        </mxCell>
        <mxCell id="At7PRhOoIOO9pEV3UID3-10" value="Agent David remove pauses / &quot;hmm&quot;s" style="rounded=1;whiteSpace=wrap;html=1;fontSize=12;glass=0;strokeWidth=1;shadow=0;" vertex="1" parent="WIyWlLk6GJQsqaUBKTNV-1">
          <mxGeometry x="540" y="340" width="120" height="40" as="geometry" />
        </mxCell>
        <mxCell id="At7PRhOoIOO9pEV3UID3-16" style="edgeStyle=orthogonalEdgeStyle;rounded=0;orthogonalLoop=1;jettySize=auto;html=1;entryX=0.5;entryY=0;entryDx=0;entryDy=0;" edge="1" parent="WIyWlLk6GJQsqaUBKTNV-1" source="At7PRhOoIOO9pEV3UID3-11" target="At7PRhOoIOO9pEV3UID3-15">
          <mxGeometry relative="1" as="geometry" />
        </mxCell>
        <mxCell id="At7PRhOoIOO9pEV3UID3-11" value="Agent Saimon cut only relevant parts" style="rounded=1;whiteSpace=wrap;html=1;" vertex="1" parent="WIyWlLk6GJQsqaUBKTNV-1">
          <mxGeometry x="540" y="440" width="120" height="40" as="geometry" />
        </mxCell>
        <mxCell id="At7PRhOoIOO9pEV3UID3-13" value="Update / reforce context" style="text;html=1;align=center;verticalAlign=middle;whiteSpace=wrap;rounded=0;" vertex="1" parent="WIyWlLk6GJQsqaUBKTNV-1">
          <mxGeometry x="400" y="426" width="130" height="50" as="geometry" />
        </mxCell>
        <mxCell id="At7PRhOoIOO9pEV3UID3-26" style="edgeStyle=orthogonalEdgeStyle;rounded=0;orthogonalLoop=1;jettySize=auto;html=1;entryX=0.5;entryY=0;entryDx=0;entryDy=0;" edge="1" parent="WIyWlLk6GJQsqaUBKTNV-1" source="At7PRhOoIOO9pEV3UID3-15" target="At7PRhOoIOO9pEV3UID3-25">
          <mxGeometry relative="1" as="geometry" />
        </mxCell>
        <mxCell id="At7PRhOoIOO9pEV3UID3-15" value="Agent Cloe enhances video edit (add music, crop video, etc)" style="rounded=1;whiteSpace=wrap;html=1;" vertex="1" parent="WIyWlLk6GJQsqaUBKTNV-1">
          <mxGeometry x="540" y="544.5" width="120" height="45.5" as="geometry" />
        </mxCell>
        <mxCell id="At7PRhOoIOO9pEV3UID3-18" value="Update / reforce context" style="text;html=1;align=center;verticalAlign=middle;whiteSpace=wrap;rounded=0;" vertex="1" parent="WIyWlLk6GJQsqaUBKTNV-1">
          <mxGeometry x="399" y="534" width="130" height="50" as="geometry" />
        </mxCell>
        <mxCell id="At7PRhOoIOO9pEV3UID3-23" style="edgeStyle=orthogonalEdgeStyle;rounded=0;orthogonalLoop=1;jettySize=auto;html=1;entryX=0.502;entryY=0.948;entryDx=0;entryDy=0;entryPerimeter=0;exitX=0;exitY=0.5;exitDx=0;exitDy=0;" edge="1" parent="WIyWlLk6GJQsqaUBKTNV-1" source="At7PRhOoIOO9pEV3UID3-25" target="At7PRhOoIOO9pEV3UID3-5">
          <mxGeometry relative="1" as="geometry">
            <mxPoint x="400" y="710" as="sourcePoint" />
          </mxGeometry>
        </mxCell>
        <mxCell id="At7PRhOoIOO9pEV3UID3-24" value="Coordenator decides if the chunks to be reprocessed" style="text;html=1;align=center;verticalAlign=middle;whiteSpace=wrap;rounded=0;" vertex="1" parent="WIyWlLk6GJQsqaUBKTNV-1">
          <mxGeometry x="220" y="490" width="60" height="30" as="geometry" />
        </mxCell>
        <mxCell id="At7PRhOoIOO9pEV3UID3-30" style="edgeStyle=orthogonalEdgeStyle;rounded=0;orthogonalLoop=1;jettySize=auto;html=1;exitX=0.5;exitY=1;exitDx=0;exitDy=0;entryX=0.5;entryY=0;entryDx=0;entryDy=0;" edge="1" parent="WIyWlLk6GJQsqaUBKTNV-1" source="At7PRhOoIOO9pEV3UID3-25" target="At7PRhOoIOO9pEV3UID3-29">
          <mxGeometry relative="1" as="geometry" />
        </mxCell>
        <mxCell id="At7PRhOoIOO9pEV3UID3-25" value="Are all chunks processed?" style="rhombus;whiteSpace=wrap;html=1;" vertex="1" parent="WIyWlLk6GJQsqaUBKTNV-1">
          <mxGeometry x="547.5" y="680" width="105" height="90" as="geometry" />
        </mxCell>
        <mxCell id="At7PRhOoIOO9pEV3UID3-28" value="No" style="text;html=1;align=center;verticalAlign=middle;whiteSpace=wrap;rounded=0;" vertex="1" parent="WIyWlLk6GJQsqaUBKTNV-1">
          <mxGeometry x="360" y="700" width="60" height="30" as="geometry" />
        </mxCell>
        <mxCell id="At7PRhOoIOO9pEV3UID3-32" style="edgeStyle=orthogonalEdgeStyle;rounded=0;orthogonalLoop=1;jettySize=auto;html=1;entryX=0.5;entryY=0;entryDx=0;entryDy=0;" edge="1" parent="WIyWlLk6GJQsqaUBKTNV-1" source="At7PRhOoIOO9pEV3UID3-29" target="At7PRhOoIOO9pEV3UID3-31">
          <mxGeometry relative="1" as="geometry" />
        </mxCell>
        <mxCell id="At7PRhOoIOO9pEV3UID3-29" value="Agent Sheyla Verify all video" style="rounded=1;whiteSpace=wrap;html=1;" vertex="1" parent="WIyWlLk6GJQsqaUBKTNV-1">
          <mxGeometry x="540" y="850" width="120" height="60" as="geometry" />
        </mxCell>
        <mxCell id="At7PRhOoIOO9pEV3UID3-39" style="edgeStyle=orthogonalEdgeStyle;rounded=0;orthogonalLoop=1;jettySize=auto;html=1;entryX=1;entryY=0.5;entryDx=0;entryDy=0;" edge="1" parent="WIyWlLk6GJQsqaUBKTNV-1" source="At7PRhOoIOO9pEV3UID3-31" target="At7PRhOoIOO9pEV3UID3-37">
          <mxGeometry relative="1" as="geometry" />
        </mxCell>
        <mxCell id="At7PRhOoIOO9pEV3UID3-43" style="edgeStyle=orthogonalEdgeStyle;rounded=0;orthogonalLoop=1;jettySize=auto;html=1;entryX=0.5;entryY=0;entryDx=0;entryDy=0;" edge="1" parent="WIyWlLk6GJQsqaUBKTNV-1" source="At7PRhOoIOO9pEV3UID3-31" target="At7PRhOoIOO9pEV3UID3-42">
          <mxGeometry relative="1" as="geometry" />
        </mxCell>
        <mxCell id="At7PRhOoIOO9pEV3UID3-31" value="Is the video according to user needs?" style="rhombus;whiteSpace=wrap;html=1;" vertex="1" parent="WIyWlLk6GJQsqaUBKTNV-1">
          <mxGeometry x="545" y="980" width="110" height="100" as="geometry" />
        </mxCell>
        <mxCell id="At7PRhOoIOO9pEV3UID3-40" style="edgeStyle=orthogonalEdgeStyle;rounded=0;orthogonalLoop=1;jettySize=auto;html=1;exitX=0.5;exitY=0;exitDx=0;exitDy=0;entryX=0.5;entryY=1;entryDx=0;entryDy=0;" edge="1" parent="WIyWlLk6GJQsqaUBKTNV-1" source="At7PRhOoIOO9pEV3UID3-37" target="At7PRhOoIOO9pEV3UID3-5">
          <mxGeometry relative="1" as="geometry" />
        </mxCell>
        <mxCell id="At7PRhOoIOO9pEV3UID3-37" value="Sheyla sends feedback to coordenator to reprocess the video" style="rounded=1;whiteSpace=wrap;html=1;" vertex="1" parent="WIyWlLk6GJQsqaUBKTNV-1">
          <mxGeometry x="150" y="1000" width="120" height="60" as="geometry" />
        </mxCell>
        <mxCell id="At7PRhOoIOO9pEV3UID3-41" value="No" style="text;html=1;align=center;verticalAlign=middle;whiteSpace=wrap;rounded=0;" vertex="1" parent="WIyWlLk6GJQsqaUBKTNV-1">
          <mxGeometry x="360" y="1000" width="60" height="30" as="geometry" />
        </mxCell>
        <mxCell id="At7PRhOoIOO9pEV3UID3-42" value="Move to processed folder" style="rounded=1;whiteSpace=wrap;html=1;" vertex="1" parent="WIyWlLk6GJQsqaUBKTNV-1">
          <mxGeometry x="540" y="1190" width="120" height="60" as="geometry" />
        </mxCell>
        <mxCell id="At7PRhOoIOO9pEV3UID3-44" value="Yes" style="text;html=1;align=center;verticalAlign=middle;whiteSpace=wrap;rounded=0;" vertex="1" parent="WIyWlLk6GJQsqaUBKTNV-1">
          <mxGeometry x="600" y="1110" width="60" height="30" as="geometry" />
        </mxCell>
        <mxCell id="At7PRhOoIOO9pEV3UID3-45" value="Yes" style="text;html=1;align=center;verticalAlign=middle;whiteSpace=wrap;rounded=0;" vertex="1" parent="WIyWlLk6GJQsqaUBKTNV-1">
          <mxGeometry x="600" y="790" width="60" height="30" as="geometry" />
        </mxCell>
      </root>
    </mxGraphModel>
  </diagram>
</mxfile>
